<svg fill="#cfd9e0" xmlns="http://www.w3.org/2000/svg" viewBox="0 0 512 512"><path d="M117.547 234.667H10.88c-5.888 0-10.667 4.779-10.667 10.667v256C.213 507.221 4.992 512 10.88 512h106.667c5.888 0 10.667-4.779 10.667-10.667v-256a10.657 10.657 0 00-10.667-10.666zM309.12 0H202.453c-5.888 0-10.667 4.779-10.667 10.667v490.667c0 5.888 4.779 10.667 10.667 10.667H309.12c5.888 0 10.667-4.779 10.667-10.667V10.667C319.787 4.779 315.008 0 309.12 0zM501.12 106.667H394.453c-5.888 0-10.667 4.779-10.667 10.667v384c0 5.888 4.779 10.667 10.667 10.667H501.12c5.888 0 10.667-4.779 10.667-10.667v-384c0-5.889-4.779-10.667-10.667-10.667z"/></svg>