<svg xmlns="http://www.w3.org/2000/svg" width="121.805" height="121.805"><path d="M121.805 109.623V21.926a4.872 4.872 0 00-4.871-4.873H92.572a4.871 4.871 0 00-4.871 4.873v87.697a4.87 4.87 0 004.871 4.873h24.361a4.871 4.871 0 004.872-4.873zm-75.518 4.873h26.797a4.871 4.871 0 004.872-4.873V12.181a4.871 4.871 0 00-4.872-4.872H46.287a4.871 4.871 0 00-4.873 4.872v97.442a4.87 4.87 0 004.873 4.873zM4.872 46.286A4.87 4.87 0 000 51.158v58.465a4.87 4.87 0 004.872 4.873h24.361a4.87 4.87 0 004.872-4.873V51.158a4.87 4.87 0 00-4.872-4.872H4.872z"/></svg>