<svg width="9" height="15" xmlns="http://www.w3.org/2000/svg"><path d="M5.273 15H2.871a.728.728 0 01-.727-.728V8.854H.742a.728.728 0 01-.727-.727V5.805c0-.401.326-.728.727-.728h1.402V3.915c0-1.153.362-2.134 1.046-2.836C3.878.373 4.84 0 5.97 0l1.832.003c.4 0 .726.327.726.728v2.155a.728.728 0 01-.727.728H6.568c-.377 0-.472.076-.493.099-.034.038-.074.147-.074.446v.918h1.707a.73.73 0 01.734.728v2.322a.728.728 0 01-.728.727H6.001v5.418a.729.729 0 01-.728.728zm-2.25-.88h2.099V8.46c0-.267.218-.485.485-.485h1.955l.001-2.018H5.607a.486.486 0 01-.485-.486V4.159c0-.344.035-.734.294-1.028.313-.355.807-.396 1.151-.396H7.65V.881L5.969.88c-1.817 0-2.946 1.164-2.946 3.036V5.47a.486.486 0 01-.486.486H.894v2.018h1.643c.268 0 .486.218.486.486v5.66z" fill="#FFF"/></svg>