<svg width="15" height="15" xmlns="http://www.w3.org/2000/svg"><g fill="#FFF"><path d="M12.717 0H2.283A2.285 2.285 0 000 2.283v10.434A2.285 2.285 0 002.283 15h10.434A2.285 2.285 0 0015 12.717V2.283A2.285 2.285 0 0012.717 0zm1.63 12.717c0 .9-.73 1.63-1.63 1.63H2.283c-.9 0-1.63-.73-1.63-1.63V6.522h2.722c-.006.026-.008.053-.014.08a4.09 4.09 0 00-.058.327 4.161 4.161 0 00-.042.571A4.244 4.244 0 007.5 11.74a4.244 4.244 0 004.24-4.24c0-.15-.011-.297-.027-.444-.004-.042-.01-.084-.016-.126a4.037 4.037 0 00-.059-.332c-.005-.025-.007-.051-.013-.077h2.723v6.196zM3.914 7.5a3.587 3.587 0 016.967-1.196l.001.002c.137.38.206.781.206 1.194A3.591 3.591 0 017.5 11.087 3.591 3.591 0 013.913 7.5zm10.435-1.63h-2.936l-.022-.048a3.664 3.664 0 00-.14-.292c-.022-.045-.047-.088-.071-.131a4.71 4.71 0 00-.17-.273 3.994 3.994 0 00-.509-.617 4.111 4.111 0 00-.477-.412c-.04-.03-.08-.06-.121-.087a3.914 3.914 0 00-.14-.091c-.041-.026-.083-.053-.125-.078a4.273 4.273 0 00-.147-.08 4.13 4.13 0 00-.131-.069c-.051-.025-.103-.047-.155-.07a3.183 3.183 0 00-.134-.058c-.053-.022-.108-.04-.163-.06l-.135-.047c-.058-.018-.116-.033-.174-.049-.045-.012-.089-.025-.134-.036-.062-.014-.125-.025-.187-.037l-.127-.024c-.07-.011-.143-.018-.214-.025-.036-.004-.072-.01-.108-.013a4.564 4.564 0 00-.655 0c-.037.004-.072.01-.108.013-.072.008-.143.015-.214.026-.043.007-.085.016-.128.024-.062.012-.125.023-.186.037-.046.01-.09.024-.136.037-.058.015-.115.03-.171.047-.047.015-.092.032-.138.048-.054.02-.108.038-.16.059-.047.018-.093.04-.139.06-.05.022-.1.043-.15.068-.046.022-.091.047-.136.07-.048.026-.095.05-.14.078-.046.026-.09.054-.134.082a4.335 4.335 0 00-.383.273 4.157 4.157 0 00-.355.318 4.15 4.15 0 00-.67.879 4.107 4.107 0 00-.077.14c-.026.049-.05.1-.074.15-.022.046-.044.092-.064.138-.007.017-.016.033-.022.05H.652V2.282c0-.9.732-1.63 1.63-1.63h10.435c.9 0 1.63.73 1.63 1.63V5.87z"/><path d="M7.5 5.217A2.285 2.285 0 005.217 7.5 2.285 2.285 0 007.5 9.783 2.285 2.285 0 009.783 7.5 2.285 2.285 0 007.5 5.217zm0 3.913c-.899 0-1.63-.731-1.63-1.63 0-.899.731-1.63 1.63-1.63.899 0 1.63.731 1.63 1.63 0 .899-.731 1.63-1.63 1.63zm5.217-7.173h-.978a.326.326 0 00-.326.326v.978c0 .18.146.326.326.326h.978c.18 0 .326-.146.326-.326v-.978a.326.326 0 00-.326-.326zm-.326.978h-.326v-.326h.326v.326z"/></g></svg>