<?xml version="1.0" encoding="UTF-8"?>
<svg width="15px" height="15px" viewBox="0 0 15 15" version="1.1" xmlns="http://www.w3.org/2000/svg" xmlns:xlink="http://www.w3.org/1999/xlink">
    <!-- Generator: Sketch 64 (93537) - https://sketch.com -->
    <title>menu</title>
    <desc>Created with Sketch.</desc>
    <g id="Page-1" stroke="none" stroke-width="1" fill="none" fill-rule="evenodd">
        <g id="Daxil-ol---Qeydiyyat" transform="translate(-226.000000, -79.000000)" fill="#FFFFFF" fill-rule="nonzero">
            <g id="HEADER">
                <g id="menu" transform="translate(226.000000, 79.000000)">
                    <path d="M5.17945313,0 L1.73460938,0 C0.778154297,0 0,0.778154297 0,1.73460938 L0,5.17945313 C0,6.1359082 0.778154297,6.9140625 1.73460938,6.9140625 L5.17945313,6.9140625 C6.1359082,6.9140625 6.9140625,6.1359082 6.9140625,5.17945313 L6.9140625,1.73460938 C6.9140625,0.778154297 6.1359082,0 5.17945313,0 Z M5.7421875,5.17945313 C5.7421875,5.48973633 5.48973633,5.7421875 5.17945313,5.7421875 L1.73460937,5.7421875 C1.42432617,5.7421875 1.171875,5.48973633 1.171875,5.17945313 L1.171875,1.73460937 C1.171875,1.42432617 1.42432617,1.171875 1.73460937,1.171875 L5.17945313,1.171875 C5.48973633,1.171875 5.7421875,1.42432617 5.7421875,1.73460937 L5.7421875,5.17945313 Z" id="Shape"></path>
                    <path d="M13.2421875,0 L9.84375,0 C8.87449219,0 8.0859375,0.788554688 8.0859375,1.7578125 L8.0859375,5.15625 C8.0859375,6.12550781 8.87449219,6.9140625 9.84375,6.9140625 L13.2421875,6.9140625 C14.2114453,6.9140625 15,6.12550781 15,5.15625 L15,1.7578125 C15,0.788554688 14.2114453,0 13.2421875,0 Z M13.828125,5.15625 C13.828125,5.47933594 13.5652734,5.7421875 13.2421875,5.7421875 L9.84375,5.7421875 C9.52066406,5.7421875 9.2578125,5.47933594 9.2578125,5.15625 L9.2578125,1.7578125 C9.2578125,1.43472656 9.52066406,1.171875 9.84375,1.171875 L13.2421875,1.171875 C13.5652734,1.171875 13.828125,1.43472656 13.828125,1.7578125 L13.828125,5.15625 Z" id="Shape"></path>
                    <path d="M5.17945313,8.0859375 L1.73460938,8.0859375 C0.778154297,8.0859375 0,8.8640918 0,9.82054688 L0,13.2653906 C0,14.2218457 0.778154297,15 1.73460938,15 L5.17945313,15 C6.1359082,15 6.9140625,14.2218457 6.9140625,13.2653906 L6.9140625,9.82054688 C6.9140625,8.8640918 6.1359082,8.0859375 5.17945313,8.0859375 Z M5.7421875,13.2653906 C5.7421875,13.5756738 5.48973633,13.828125 5.17945313,13.828125 L1.73460937,13.828125 C1.42432617,13.828125 1.171875,13.5756738 1.171875,13.2653906 L1.171875,9.82054688 C1.171875,9.51026367 1.42432617,9.2578125 1.73460937,9.2578125 L5.17945313,9.2578125 C5.48973633,9.2578125 5.7421875,9.51026367 5.7421875,9.82054687 L5.7421875,13.2653906 Z" id="Shape"></path>
                    <path d="M13.2421875,8.0859375 L9.84375,8.0859375 C8.87449219,8.0859375 8.0859375,8.87449219 8.0859375,9.84375 L8.0859375,13.2421875 C8.0859375,14.2114453 8.87449219,15 9.84375,15 L13.2421875,15 C14.2114453,15 15,14.2114453 15,13.2421875 L15,9.84375 C15,8.87449219 14.2114453,8.0859375 13.2421875,8.0859375 Z M13.828125,13.2421875 C13.828125,13.5652734 13.5652734,13.828125 13.2421875,13.828125 L9.84375,13.828125 C9.52066406,13.828125 9.2578125,13.5652734 9.2578125,13.2421875 L9.2578125,9.84375 C9.2578125,9.52066406 9.52066406,9.2578125 9.84375,9.2578125 L13.2421875,9.2578125 C13.5652734,9.2578125 13.828125,9.52066406 13.828125,9.84375 L13.828125,13.2421875 Z" id="Shape"></path>
                </g>
            </g>
        </g>
    </g>
</svg>