<svg width="15" height="15" xmlns="http://www.w3.org/2000/svg"><path d="M5.18 0H1.734C.778 0 0 .778 0 1.735v3.444c0 .957.778 1.735 1.735 1.735h3.444c.957 0 1.735-.778 1.735-1.735V1.735C6.914.778 6.136 0 5.18 0zm.562 5.18c0 .31-.252.562-.563.562H1.735a.563.563 0 01-.563-.563V1.735c0-.31.252-.563.563-.563h3.444c.31 0 .563.252.563.563v3.444zm7.5-5.18H9.844a1.76 1.76 0 00-1.758 1.758v3.398c0 .97.788 1.758 1.758 1.758h3.398A1.76 1.76 0 0015 5.156V1.758A1.76 1.76 0 0013.242 0zm.586 5.156a.587.587 0 01-.586.586H9.844a.587.587 0 01-.586-.586V1.758c0-.323.263-.586.586-.586h3.398c.323 0 .586.263.586.586v3.398zM5.18 8.086H1.734C.778 8.086 0 8.864 0 9.82v3.444C0 14.222.778 15 1.735 15h3.444c.957 0 1.735-.778 1.735-1.735V9.821c0-.957-.778-1.735-1.735-1.735zm.562 5.18c0 .31-.252.562-.563.562H1.735a.563.563 0 01-.563-.563V9.821c0-.31.252-.563.563-.563h3.444c.31 0 .563.252.563.563v3.444zm7.5-5.18H9.844a1.76 1.76 0 00-1.758 1.758v3.398c0 .97.788 1.758 1.758 1.758h3.398A1.76 1.76 0 0015 13.242V9.844a1.76 1.76 0 00-1.758-1.758zm.586 5.156a.587.587 0 01-.586.586H9.844a.587.587 0 01-.586-.586V9.844c0-.323.263-.586.586-.586h3.398c.323 0 .586.263.586.586v3.398z" fill="#FFF"/></svg>