<svg width="57" height="20" xmlns="http://www.w3.org/2000/svg"><g fill="none" fill-rule="evenodd"><path d="M32.7 20H3.43C1.535 20 0 18.415 0 16.455V3.45C0 1.545 1.495 0 3.335 0h29.38c.91 0 1.785.375 2.425 1.045l6.17 6.4c1.325 1.375 1.33 3.595.015 4.985l-6.18 6.51A3.385 3.385 0 0132.7 20" fill="#CC1A38" fill-rule="nonzero"/><path d="M35.42 9.62c.2-1.075 1.175-1.8 2.27-1.58 1.075.21 1.7 1.255 1.505 2.33-.2 1.095-1.15 1.805-2.225 1.59-1.1-.215-1.75-1.24-1.55-2.34M6.725 16.8H5.04c-.285 0-.425-.15-.425-.445V3.645c0-.295.14-.445.425-.445h1.525c.28 0 .47.1.565.295l4.1 8.015h.08V3.645c0-.295.14-.445.425-.445h1.685c.285 0 .425.15.425.445v12.71c0 .295-.14.445-.425.445h-1.48c-.3 0-.515-.14-.65-.425L7.23 8.51h-.08v7.845c0 .295-.14.445-.425.445m9.51-.445v-2.01c0-.8.345-1.485 1.025-2.05l3.835-3.3c.625-.52.935-1.085.935-1.69V6.67c0-.44-.1-.75-.3-.945-.205-.19-.535-.285-.99-.285h-.73c-.445 0-.76.095-.94.285-.18.195-.27.505-.27.945v.675c0 .31-.145.465-.435.465H16.59c-.29 0-.435-.155-.435-.465v-.72c0-1.1.3-1.945.895-2.535.6-.595 1.445-.89 2.545-.89h1.58c1.1 0 1.945.295 2.545.89.595.59.895 1.435.895 2.535v.845c0 1.1-.415 2.01-1.25 2.73l-3.92 3.385c-.165.155-.25.325-.25.51v.335h4.985c.29 0 .435.15.435.445v1.48c0 .295-.145.445-.435.445h-7.505c-.29 0-.44-.15-.44-.445m9.92-9.37V5.25c0-.24.095-.42.28-.55l1.71-1.205c.285-.195.53-.295.73-.295h1.5c.265 0 .395.15.395.445v12.71c0 .17-.03.285-.085.35-.055.065-.155.095-.29.095H28.78c-.26 0-.395-.15-.395-.445v-10.3L26.55 7.24c-.265.125-.395.04-.395-.255" fill="#FFF" fill-rule="nonzero"/><path d="M48.62 12.22c-.225.25-.55.375-.98.375h-.81c-.785 0-1.175-.455-1.175-1.365V7.97c0-.91.39-1.365 1.175-1.365h1.99c.095 0 .145.045.145.14v4.41c0 .46-.115.815-.345 1.065zm-1.165 1.38c.73 0 1.215-.275 1.45-.83h.06v.61c0 .145.065.22.195.22h.64c.135 0 .2-.075.2-.22V5.82c0-.145-.065-.22-.2-.22h-3.08c-.655 0-1.17.205-1.545.61-.375.41-.56.98-.56 1.71v3.36c0 .73.185 1.3.56 1.71.375.405.89.61 1.545.61h.735z" fill="#FFF"/><path d="M51.54 13.38v-.295c0-.19.05-.355.15-.49l3.78-5.93v-.06h-3.595c-.145 0-.215-.08-.215-.235v-.55c0-.145.07-.22.215-.22h4.695c.155 0 .23.075.23.22v.515c0 .19-.045.33-.135.425l-3.66 5.775v.06h3.705c.14 0 .215.08.215.235v.55c0 .145-.075.22-.215.22h-4.94c-.155 0-.23-.075-.23-.22" fill="#FFF" fill-rule="nonzero"/></g></svg>