<svg width="19" height="19" xmlns="http://www.w3.org/2000/svg"><path d="M17.471 12.49c-1.17 0-2.316-.183-3.403-.543-.53-.182-1.131-.042-1.48.314l-2.154 1.626C7.964 12.57 6.383 10.99 5.08 8.535l1.582-2.103a1.51 1.51 0 00.37-1.527 10.857 10.857 0 01-.544-3.407A1.5 1.5 0 004.992 0H1.498A1.5 1.5 0 000 1.498c0 9.633 7.838 17.47 17.471 17.47a1.5 1.5 0 001.498-1.497v-3.484a1.5 1.5 0 00-1.498-1.498zm.5 4.981a.5.5 0 01-.5.5C8.388 17.97.998 10.58.998 1.497a.5.5 0 01.5-.5h3.494a.5.5 0 01.499.5c0 1.274.2 2.526.591 3.713.058.187.011.38-.172.57L4.093 8.186a.5.5 0 00-.046.527c1.48 2.908 3.279 4.707 6.208 6.207.169.088.376.07.528-.045l2.458-1.863a.5.5 0 01.508-.12c1.194.395 2.446.595 3.722.595a.5.5 0 01.5.499v3.484z" fill="#CFD9E0"/></svg>