<svg width="13" height="15" xmlns="http://www.w3.org/2000/svg"><path d="M2.87 6.863c-.446-.835-.385-1.915.156-2.818C4.554 1.5 9.286 1.929 9.286 5.42c0 3.098-2.129 3.879-2.937 3.223-.71-.574.541-2.25.541-3.7 0-2.47-3.635-2.189-3.635.872 0 .603.144 1.067.238 1.305L2.5 11.2c-.04.17-.382 3.365.393 3.73 1.026.485 2.25-3.243 2.51-4.32a3.233 3.233 0 001.773.535C13.482 11.144 14.508 0 6.309 0 .162 0-1.423 6.297 1.279 8.798c.74.68 1.98-1.204 1.59-1.934zM6.309.936c6.945 0 5.962 9.272.867 9.272-.743 0-1.411-.38-1.603-.732a.463.463 0 00-.438-.243c-.808.046-.323 1.668-1.791 4.151-.135-2.46.312-2.39 1.096-6.195.055-.223-.695-1.668.159-2.613.207-.23.478-.362.743-.362 1.257 0 .22 2.127-.103 3.455-.396 1.657 1.306 2.614 2.917 1.846.622-.297 2.067-1.29 2.067-4.094 0-4.446-5.982-5.216-7.998-1.858-.7 1.165-.777 2.574-.206 3.69-.02.145-.183.427-.331.614C-.058 5.734 1.25.937 6.308.936z" fill="#FFF" fill-rule="nonzero"/></svg>