<svg class="header__center-part__input-wrapper__search-icon" width="16" height="16" xmlns="http://www.w3.org/2000/svg"><path d="M15.326 14.147s-.168.421-.42.674c-.338.337-.759.505-.759.505s-.758.59-2.358-1.347c-.926-1.179-1.852-2.358-2.61-3.284-.842.673-2.021 1.094-3.284 1.094A5.858 5.858 0 010 5.895 5.858 5.858 0 015.895 0a5.858 5.858 0 015.894 5.895 5.75 5.75 0 01-1.094 3.368c.926.674 2.105 1.684 3.368 2.61 1.937 1.432 1.263 2.274 1.263 2.274zM5.895 1.684a4.17 4.17 0 00-4.21 4.21 4.17 4.17 0 004.21 4.211 4.17 4.17 0 004.21-4.21 4.17 4.17 0 00-4.21-4.21z" fill="#262626"/></svg>