<?xml version="1.0" encoding="UTF-8"?>
<svg width="12px" height="24px" viewBox="0 0 12 24" version="1.1" xmlns="http://www.w3.org/2000/svg" xmlns:xlink="http://www.w3.org/1999/xlink">
    <g id="Page-1" stroke="none" stroke-width="1" fill="none" fill-rule="evenodd">
        <g id="Main" transform="translate(-355.000000, -399.000000)" fill="#C4C4C4" fill-rule="nonzero">
            <g id="Slider" transform="translate(330.000000, 206.000000)">
                <g id="arrow.0.4bcf1585-copy" transform="translate(31.000000, 205.000000) scale(-1, 1) translate(-31.000000, -205.000000) translate(25.000000, 193.000000)">
                    <path d="M12,12 L12,11.8666667 C12,11.4666667 11.8666667,11.2013333 11.6,10.8026667 L3.22,0.692 C2.55333333,-0.106666667 1.35733333,-0.238666667 0.692,0.425333333 C-0.106666667,1.092 -0.106666667,2.156 0.425333333,2.95333333 L7.876,12 L0.425333333,21.0466667 C-0.238666667,21.844 -0.106666667,22.9093333 0.692,23.5746667 C1.49066667,24.2386667 2.55466667,24.1066667 3.22,23.308 L11.6013333,13.1973333 C11.868,12.9306667 12,12.532 12,12.1333333 L12,12 Z" id="Path"></path>
                </g>
            </g>
        </g>
    </g>
</svg>