<svg width="12" height="12" xmlns="http://www.w3.org/2000/svg"><path d="M11.968 4.348c-.09-.28-.361-.472-.742-.527L8.12 3.369 6.73.555C6.56.21 6.295.012 6 .012s-.56.198-.73.543L3.88 3.37l-3.106.452c-.38.055-.651.247-.742.527-.091.28.015.594.29.863L2.57 7.4l-.53 3.094c-.068.395.047.632.156.762a.672.672 0 00.525.235c.159 0 .327-.047.501-.138L6 9.894l2.778 1.46c.174.091.343.138.501.138.21 0 .397-.084.525-.235.109-.13.224-.367.157-.762L9.43 7.4l2.246-2.19c.276-.269.382-.583.291-.863zm-.781.36l-2.38 2.319a.352.352 0 00-.101.311l.562 3.276a.43.43 0 01.002.174.433.433 0 01-.165-.056L6.164 9.185a.352.352 0 00-.328 0l-2.941 1.547a.434.434 0 01-.165.056.432.432 0 01.003-.174l.561-3.276a.352.352 0 00-.1-.31l-2.38-2.32a.433.433 0 01-.105-.14.433.433 0 01.167-.052l3.288-.477a.352.352 0 00.265-.193L5.9.866A.433.433 0 016 .723c.02.017.058.057.1.143l1.471 2.98c.051.104.15.176.265.193l3.289.477a.432.432 0 01.167.052.433.433 0 01-.105.14z" fill="#FFF" fill-rule="nonzero"/></svg>