<svg width="15" height="13" xmlns="http://www.w3.org/2000/svg"><path d="M5.708 12.384c-2.504 0-4.483-.437-5.43-1.2L.26 11.17l-.016-.016a.77.77 0 01-.202-.81l.008-.024a.784.784 0 01.716-.492c.64-.011 1.2-.088 1.709-.236-.811-.377-1.374-1.03-1.71-1.975A.7.7 0 011.01 6.8a.715.715 0 01.213-.109 4.73 4.73 0 01-.97-1.738l-.006-.02-.004-.02C.18 4.596.321 4.27.581 4.13a.726.726 0 01.346-.098A3.658 3.658 0 01.65 3.19C.497 2.401.624 1.61 1.026.84l.093-.186a.52.52 0 01.83-.135l.17.17c1.34 1.404 2.538 2.07 4.612 2.525a3.674 3.674 0 01.992-2.118A3.48 3.48 0 0110.207 0h.006c.687 0 1.539.393 2.054.669.442-.145.975-.369 1.527-.605a.698.698 0 01.78.137c.2.2.255.48.15.753-.04.112-.086.222-.137.33a.699.699 0 01.203.14c.177.176.25.453.188.704l-.007.024c-.212.683-.618 1.238-1.156 1.587-.09 4.784-3.692 8.645-8.107 8.645zm-4.586-1.69c.892.505 2.592.81 4.586.81 1.916 0 3.724-.822 5.091-2.316 1.379-1.506 2.138-3.506 2.138-5.632v-.024a.52.52 0 01.276-.459c.346-.183.627-.495.809-.894a.517.517 0 01-.496-.203.516.516 0 01-.004-.614c.072-.1.138-.203.196-.31-.477.2-.93.38-1.323.5a.563.563 0 01-.433-.047c-.7-.39-1.353-.624-1.746-.625-1.451.022-2.63 1.265-2.63 2.772a.517.517 0 01-.62.509c-2.39-.471-3.808-1.178-5.281-2.658a2.597 2.597 0 00-.171 1.519c.099.51.362 1.02.761 1.477a.517.517 0 01.05.616.515.515 0 01-.573.227 2.376 2.376 0 01-.484-.186c.308.669.837 1.287 1.503 1.743a.52.52 0 01-.332.945 2.332 2.332 0 01-.689-.15c.374.76.97 1.179 1.888 1.338a.52.52 0 01.154.97c-.782.415-1.638.638-2.67.692z" fill="#FFF"/></svg>