<svg width="14" height="14" xmlns="http://www.w3.org/2000/svg"><path d="M7.127 13.64a6.884 6.884 0 01-3.322-.85L0 14l1.24-3.659A6.75 6.75 0 01.254 6.82C.254 3.053 3.331 0 7.127 0 10.923 0 14 3.053 14 6.82c0 3.766-3.077 6.82-6.873 6.82zm0-12.554c-3.186 0-5.778 2.572-5.778 5.734 0 1.254.409 2.416 1.1 3.361l-.721 2.13 2.22-.706a5.775 5.775 0 003.18.948c3.185 0 5.778-2.572 5.778-5.733 0-3.162-2.593-5.734-5.779-5.734zm3.47 7.304c-.042-.07-.154-.111-.322-.195-.169-.083-.997-.488-1.151-.543-.155-.056-.267-.084-.38.083a9.64 9.64 0 01-.533.655c-.098.112-.197.126-.365.042-.168-.083-.711-.26-1.355-.83a5.04 5.04 0 01-.937-1.157c-.098-.167-.01-.257.074-.34.076-.076.168-.196.253-.293.084-.098.112-.168.168-.28.056-.11.028-.208-.014-.292-.042-.084-.38-.906-.52-1.241-.14-.334-.28-.279-.379-.279-.098 0-.21-.014-.322-.014a.622.622 0 00-.45.21c-.154.167-.59.571-.59 1.394 0 .822.604 1.617.689 1.728.084.112 1.165 1.854 2.877 2.524 1.713.669 1.713.446 2.022.418.309-.028.997-.404 1.137-.795.14-.39.14-.725.099-.795z" fill="#FFF"/></svg>