<?xml version="1.0" encoding="UTF-8"?>
<svg width="14px" height="14px" viewBox="0 0 14 14" version="1.1" xmlns="http://www.w3.org/2000/svg" xmlns:xlink="http://www.w3.org/1999/xlink">
    <!-- Generator: Sketch 64 (93537) - https://sketch.com -->
    <title>Shape Copy</title>
    <desc>Created with Sketch.</desc>
    <g id="Page-1" stroke="none" stroke-width="1" fill="none" fill-rule="evenodd">
        <g id="mobile-Index" transform="translate(-33.000000, -3429.000000)" fill="#FFFFFF" fill-rule="nonzero">
            <g id="Group-19" transform="translate(0.000000, 3270.000000)">
                <g id="Group-17" transform="translate(23.000000, 114.000000)">
                    <g id="Group-14" transform="translate(0.000000, 35.000000)">
                        <path d="M17.1272444,23.6394223 C15.9221556,23.6394223 14.7900222,23.3314222 13.8050444,22.7908667 L10,24 L11.2404,20.3410222 C10.6147556,19.3132667 10.2543333,18.1080222 10.2543333,16.8197111 C10.2543333,13.0532445 13.3313778,10 17.1274,10 C20.9229555,10 24,13.0532445 24,16.8197111 C24,20.5861778 20.9231111,23.6394223 17.1272444,23.6394223 Z M17.1272444,11.0860889 C13.9408444,11.0860889 11.3489778,13.6582 11.3489778,16.8197111 C11.3489778,18.0742667 11.7579333,19.2361112 12.4495333,20.1814223 L11.7277555,22.3106667 L13.9481555,21.6049111 C14.8606444,22.2039556 15.9535778,22.5533334 17.1272444,22.5533334 C20.3131778,22.5533334 22.9055111,19.9813778 22.9055111,16.8198667 C22.9055111,13.6583556 20.3131778,11.0860889 17.1272444,11.0860889 L17.1272444,11.0860889 Z M20.5976889,18.3903556 C20.5553778,18.3208222 20.4430667,18.2788222 20.2749111,18.1952889 C20.1062889,18.1117556 19.2778,17.7071556 19.1236444,17.6516223 C18.9690222,17.5959333 18.8565555,17.5677778 18.7444,17.7351556 C18.6322444,17.9025334 18.3093111,18.2788222 18.2108444,18.3903556 C18.1125333,18.5020445 18.0143778,18.5160445 17.8459111,18.4323556 C17.6776,18.3488223 17.1347111,18.1722667 16.4910222,17.6027778 C15.9902889,17.1597556 15.6521111,16.6128223 15.5539555,16.4452889 C15.4556444,16.2780667 15.5435333,16.1876889 15.6278444,16.1044667 C15.7036,16.0294889 15.7963111,15.9092445 15.8806222,15.8117111 C15.9649333,15.7140223 15.9929333,15.6444889 16.0489333,15.5328 C16.1052444,15.4212667 16.0770889,15.3237334 16.0349333,15.2398889 C15.9927777,15.1563556 15.6556889,14.3337778 15.5153778,13.9990223 C15.3750667,13.6645778 15.2349111,13.7202667 15.1364444,13.7202667 C15.0381333,13.7202667 14.9258222,13.7062667 14.8135111,13.7062667 C14.7012,13.7062667 14.5185777,13.7481111 14.3641111,13.9153334 C14.2098,14.0827111 13.7747111,14.4871556 13.7747111,15.3095778 C13.7747111,16.1321556 14.3781111,16.9268889 14.4625778,17.0382667 C14.5467333,17.1496445 15.6276889,18.8924889 17.3402,19.5618445 C19.0533333,20.2310445 19.0533333,20.0078222 19.3622666,19.9799778 C19.6707333,19.9521334 20.3586,19.5756889 20.4993778,19.1854 C20.6395333,18.7948 20.6395333,18.4600445 20.5976889,18.3903556 L20.5976889,18.3903556 Z" id="Shape-Copy"></path>
                    </g>
                </g>
            </g>
        </g>
    </g>
</svg>