<svg width="15" height="12" xmlns="http://www.w3.org/2000/svg"><g fill="#FFF"><path d="M9.809 5.01L6.495 3.196a.603.603 0 00-.603.01.603.603 0 00-.298.524v3.596a.6.6 0 00.297.522.607.607 0 00.6.014L9.805 6.08a.609.609 0 00.004-1.07zM6.473 6.873V4.186L8.95 5.541 6.473 6.873z"/><path d="M14.89 2.681l-.001-.006c-.013-.121-.14-1.195-.661-1.741C13.624.29 12.94.214 12.61.176a3.968 3.968 0 01-.074-.01L12.51.165C10.527.02 7.533 0 7.503 0h-.006c-.03 0-3.024.02-5.025.164l-.027.003-.07.008C2.05.213 1.373.291.768.957c-.497.54-.641 1.591-.656 1.71L.11 2.68C.106 2.731 0 3.928 0 5.128v1.123c0 1.2.106 2.397.11 2.447l.001.008c.013.118.14 1.173.659 1.719.567.621 1.285.703 1.67.747.062.007.114.013.15.02l.035.004c1.145.11 4.734.163 4.887.165h.008c.03 0 3.025-.02 5.008-.164l.026-.003a3.1 3.1 0 01.084-.01c.323-.033.996-.105 1.593-.761.497-.54.641-1.592.656-1.71l.002-.015c.004-.05.11-1.246.11-2.447V5.128c0-1.2-.106-2.396-.11-2.447zm-.769 3.57c0 1.111-.097 2.256-.106 2.36-.038.29-.19.955-.431 1.218-.374.411-.758.452-1.038.482a4.81 4.81 0 00-.093.01c-1.918.139-4.8.16-4.933.161-.149-.002-3.686-.056-4.796-.16a3.858 3.858 0 00-.183-.023c-.329-.038-.779-.09-1.125-.47l-.008-.008c-.238-.248-.385-.87-.422-1.206a30.717 30.717 0 01-.107-2.364V5.128c0-1.11.097-2.253.106-2.36.045-.341.2-.966.431-1.218.385-.424.791-.47 1.06-.501.025-.003.05-.006.071-.01C4.493.902 7.396.88 7.5.88c.104 0 3.006.022 4.934.16l.078.01c.276.032.693.08 1.076.488l.004.003c.238.248.385.881.422 1.224.007.075.107 1.235.107 2.364v1.123z"/></g></svg>